<svg xmlns="http://www.w3.org/2000/svg" version="1" fill="#efeff4" viewBox="0 0 50 50" enable-background="new 0 0 50 50"><path d="M26.2 20.1h-2.3c-0.3 0-0.4 0.2-0.4 0.4v13.4c0 0.3 0.2 0.4 0.4 0.4v0.1h2.3c0.3 0 0.4-0.2 0.4-0.4V20.5C26.6 20.2 26.4 20.1 26.2 20.1zM23.8 16.2h2.4c0.3 0 0.4-0.2 0.4-0.4v-2.6c0-0.3-0.2-0.4-0.4-0.4h-2.4c-0.3 0-0.4 0.2-0.4 0.4v2.6C23.4 16.1 23.6 16.2 23.8 16.2zM25 1C11.2 1 0 11 0 23.2c0 5.9 2.6 11.4 7.3 15.6-0.9 2.6-3.1 4.3-4.7 5.6-1.5 1.2-2.6 2.1-2.3 3.3l0.1 0.4 0.4 0.2c0.9 0.5 2.1 0.8 3.6 0.8 4.9 0 12.1-2.8 15.2-4.2 1.8 0.4 3.6 0.6 5.4 0.6 13.8 0 25-10 25-22.2C49.9 11 38.7 1 25 1zM24.9 43.5c-1.8 0-3.5-0.2-5.3-0.6l-0.3-0.1-0.3 0.1c-2.2 1-9.8 4.2-14.7 4.2-0.7 0-1.2-0.1-1.7-0.2 0.3-0.3 0.8-0.7 1.1-0.9 1.9-1.5 4.7-3.8 5.6-7.3l0.1-0.6-0.5-0.4C4.5 33.9 2 28.7 2 23.2 2 12.1 12.3 3 25 3c12.6 0 22.9 9.1 22.9 20.3C47.9 34.4 37.6 43.5 24.9 43.5z"/></svg>
