<svg xmlns="http://www.w3.org/2000/svg" version="1" viewBox="0 0 50 50" fill="#ff8040" enable-background="new 0 0 50 50"><path d="M46 20H23v-6c0-6.1-4.9-11-11-11S1 7.9 1 14v7c0 0.6 0.4 1 1 1s1-0.4 1-1v-7c0-5 4-9 9-9s9 4 9 9v6h-3c-1.7 0-3 1.3-3 3v22c0 1.7 1.3 3 3 3h28c1.7 0 3-1.3 3-3V23C49 21.3 47.7 20 46 20zM47 45c0 0.6-0.4 1-1 1H18c-0.6 0-1-0.4-1-1V23c0-0.6 0.4-1 1-1h28c0.6 0 1 0.4 1 1V45zM32 29c-1.7 0-3 1.3-3 3 0 0.9 0.4 1.7 1 2.2V37c0 1.1 0.9 2 2 2s2-0.9 2-2v-2.8c0.6-0.5 1-1.3 1-2.2C35 30.3 33.7 29 32 29z"/></svg>
