<svg xmlns="http://www.w3.org/2000/svg" version="1" fill="#333333" viewBox="0 0 50 50"><path d="M49.866 6.2c-0.145-0.249-0.389-0.424-0.671-0.48l-28.6-5.7c-0.483-0.096-0.974 0.18-1.139 0.649L9.067 30.282l-7.192-2.909c-0.271-0.109-0.577-0.094-0.836 0.039 -0.259 0.135-0.447 0.377-0.513 0.661 -2.358 10.153 5.092 13.161 5.903 13.455C8.548 42.461 25.8 50 29 50c0.657 0 1.268-0.031 1.845-0.133 0.169 0.014 0.34 0.025 0.513 0.032 0.361 0.021 0.699-0.17 0.885-0.46 2.135-0.983 3.968-3.598 6.496-10.295C43.093 27.27 49.879 7.222 49.947 7.021 50.039 6.748 50.01 6.449 49.866 6.2zM7.202 39.685c-0.033-0.015-0.067-0.027-0.101-0.038 -0.262-0.083-6.132-2.036-4.855-9.966l20.193 8.169c-0.103 1.74-0.069 5.988 2.326 8.969C19.943 45.118 12.327 41.938 7.202 39.685zM36.864 38.446c-2.709 7.176-4.339 8.962-6.069 9.406 -1.862-0.202-3.334-0.934-4.381-2.177 -2.576-3.062-1.929-8.293-1.922-8.346 0.059-0.451-0.195-0.886-0.617-1.057l-12.951-5.24L21.056 2.15l26.63 5.308C46.215 11.792 40.626 28.188 36.864 38.446zM18.709 26.495c0.39 0.392 0.388 1.024-0.003 1.414C18.51 28.104 18.255 28.2 18 28.2c-0.169 0-0.338-0.043-0.489-0.128 -0.449-0.105-0.793-0.508-0.788-0.983 0.006-0.548 0.43-0.989 0.978-0.989C17.869 26.1 18.315 26.1 18.709 26.495zM25.452 21.083c0.175-0.523 0.736-0.809 1.265-0.632l8.399 2.8c0.523 0.175 0.807 0.741 0.632 1.265 -0.14 0.419-0.529 0.684-0.948 0.684 -0.104 0-0.211-0.017-0.316-0.052l-8.399-2.8C25.561 22.174 25.277 21.607 25.452 21.083zM28.835 13.236c0.146-0.533 0.7-0.848 1.229-0.7l8.4 2.3c0.533 0.146 0.847 0.696 0.701 1.229 -0.122 0.444-0.524 0.736-0.964 0.736 -0.088 0-0.177-0.012-0.265-0.036l-8.4-2.3C29.003 14.319 28.689 13.769 28.835 13.236zM20.8 18.7c0.167 0 0.613 0 1.006 0.391 0.391 0.39 0.393 1.023 0.003 1.415C21.614 20.702 21.357 20.8 21.1 20.8c-0.168 0-0.335-0.042-0.486-0.126 -0.451-0.105-0.797-0.508-0.791-0.985C19.829 19.141 20.252 18.7 20.8 18.7zM22.823 11.689c0.006-0.548 0.429-0.989 0.977-0.989 0.167 0 0.613 0 1.006 0.391 0.392 0.39 0.393 1.023 0.003 1.415C24.614 12.702 24.357 12.8 24.1 12.8c-0.168 0-0.335-0.042-0.486-0.126C23.163 12.569 22.817 12.166 22.823 11.689zM22.251 28.884c0.175-0.523 0.74-0.807 1.265-0.632l8.399 2.8c0.523 0.174 0.807 0.74 0.632 1.265C32.408 32.735 32.019 33 31.6 33c-0.104 0-0.211-0.017-0.316-0.052l-8.399-2.8C22.36 29.975 22.077 29.408 22.251 28.884z"/></svg>
